<?xml version="1.0" standalone="no"?>
<!DOCTYPE svg PUBLIC "-//W3C//DTD SVG 20010904//EN"
 "http://www.w3.org/TR/2001/REC-SVG-20010904/DTD/svg10.dtd">
<svg version="1.0" xmlns="http://www.w3.org/2000/svg"
 width="700.000000pt" height="700.000000pt" viewBox="0 0 700.000000 700.000000"
 preserveAspectRatio="xMidYMid meet">
<metadata>
Created by potrace 1.14, written by Peter Selinger 2001-2017
</metadata>
<g transform="translate(0.000000,700.000000) scale(0.100000,-0.100000)"
fill="#000000" stroke="none">
<path d="M3515 6892 c-64 -22 -114 -60 -145 -111 -21 -34 -30 -41 -60 -41 -80
-2 -223 -17 -345 -36 -113 -18 -350 -76 -465 -113 -186 -61 -445 -176 -581
-256 -35 -21 -73 -43 -84 -49 -78 -44 -227 -149 -360 -255 -484 -388 -870
-960 -1045 -1550 -34 -116 -85 -334 -95 -410 -8 -58 -15 -109 -20 -141 -19
-110 -25 -493 -11 -645 20 -220 49 -385 102 -580 146 -533 426 -1015 813
-1404 69 -69 166 -160 216 -201 49 -41 98 -82 108 -91 26 -23 265 -183 313
-209 21 -12 54 -30 73 -41 258 -152 670 -301 979 -353 17 -3 44 -8 60 -11 100
-17 231 -32 351 -39 30 -2 46 -11 79 -48 126 -137 338 -118 439 39 30 47 37
68 41 125 14 204 -175 349 -370 282 -53 -18 -122 -73 -144 -116 l-16 -31 -105
7 c-58 4 -109 8 -112 10 -3 2 -33 7 -66 11 -208 23 -525 115 -755 217 -247
110 -568 309 -645 400 -50 59 -79 135 -79 210 0 58 5 77 42 150 45 91 123 180
209 239 26 18 50 36 53 39 3 3 28 21 55 39 73 49 175 158 212 227 18 33 57
124 87 202 57 146 81 192 99 192 15 0 88 -78 191 -205 164 -202 273 -302 406
-374 109 -58 201 -80 400 -97 93 -7 156 -20 175 -35 15 -11 75 -14 105 -4 42
14 80 68 80 117 0 36 -31 87 -66 107 -62 37 -135 53 -289 66 -97 8 -181 24
-229 42 -110 44 -232 148 -369 318 -208 256 -285 315 -412 315 -96 0 -187 -65
-251 -179 -14 -25 -45 -97 -70 -161 -90 -232 -100 -246 -271 -367 -212 -149
-321 -285 -388 -481 l-21 -64 -49 54 c-106 117 -278 356 -356 494 -155 276
-284 627 -335 914 -4 25 -8 47 -9 50 -3 12 -18 117 -21 140 -19 194 -23 409
-11 570 8 101 16 172 20 177 5 5 171 -49 207 -67 55 -28 76 -59 99 -143 69
-253 344 -597 617 -772 245 -157 475 -175 646 -49 75 54 103 104 105 187 2
104 -39 202 -157 372 -210 304 -253 369 -271 410 -11 25 -18 49 -15 54 12 19
109 34 241 36 121 2 146 5 187 24 72 35 143 108 237 246 114 167 204 216 554
304 247 63 330 95 387 153 171 171 8 511 -320 666 -91 42 -180 64 -284 67 -92
4 -159 -9 -281 -55 -73 -27 -158 -29 -203 -6 -18 9 -32 19 -32 21 0 3 35 40
78 82 98 99 114 120 164 220 65 131 64 254 -2 335 -59 71 -177 102 -300 78
-25 -5 -85 -12 -135 -15 l-90 -6 34 21 c106 67 361 180 541 240 91 30 297 83
370 95 19 3 46 8 60 10 43 9 182 25 263 31 l77 6 50 -50 c64 -64 131 -91 215
-87 74 3 121 22 175 71 180 163 76 460 -169 480 -38 3 -72 -1 -106 -14z
m-1715 -1029 c90 -20 323 -25 434 -7 49 7 92 12 94 9 17 -17 -86 -175 -140
-217 -61 -46 -100 -92 -125 -145 -47 -102 -27 -211 54 -290 121 -118 312 -139
526 -59 94 36 157 40 248 17 92 -24 186 -77 252 -145 51 -51 93 -127 84 -150
-7 -18 -130 -54 -380 -111 -64 -15 -199 -62 -260 -92 -149 -72 -240 -154 -339
-303 -31 -47 -69 -98 -85 -113 -29 -27 -33 -28 -159 -31 -302 -7 -453 -99
-454 -278 0 -112 51 -213 245 -488 119 -168 188 -278 200 -317 5 -17 0 -25
-24 -37 -145 -76 -395 59 -642 346 -107 125 -186 260 -209 358 -45 192 -161
292 -425 366 -33 9 -64 20 -68 24 -12 11 45 220 98 362 192 512 493 929 930
1287 30 25 56 39 65 35 8 -3 44 -12 80 -21z"/>
<path d="M4615 6425 c-111 -30 -168 -64 -220 -132 -69 -91 -88 -225 -46 -334
24 -63 97 -147 148 -169 17 -8 33 -23 35 -35 2 -11 3 -310 3 -665 l0 -645
-706 -2 c-772 -1 -745 1 -784 -59 -38 -58 -13 -148 49 -178 31 -14 113 -16
811 -16 865 0 823 -3 862 68 19 36 20 54 19 765 -1 401 1 732 4 735 3 4 31 25
63 46 143 96 194 288 117 436 -40 77 -122 147 -202 171 -33 10 -134 19 -153
14z m98 -226 c94 -49 101 -166 14 -219 -34 -21 -88 -21 -127 0 -29 15 -60 69
-60 103 0 86 100 153 173 116z"/>
<path d="M2799 6257 c-57 -38 -59 -49 -59 -305 0 -258 4 -276 63 -312 59 -37
124 -21 164 39 22 33 23 41 23 271 0 230 -1 238 -23 271 -42 62 -108 76 -168
36z"/>
<path d="M3157 6264 c-58 -32 -62 -58 -62 -410 0 -342 3 -362 51 -397 61 -45
150 -25 183 42 16 32 18 69 17 366 -1 310 -2 332 -21 359 -35 52 -112 70 -168
40z"/>
<path d="M3544 6270 c-11 -4 -33 -22 -47 -40 -22 -26 -27 -42 -28 -88 0 -62 0
-840 1 -910 1 -128 186 -166 235 -48 21 49 21 971 1 1021 -25 59 -101 90 -162
65z"/>
<path d="M6060 5006 c-109 -22 -210 -108 -249 -210 -29 -75 -24 -193 11 -266
28 -61 89 -127 143 -156 l35 -19 0 -247 0 -248 -1666 0 c-1828 0 -1709 4
-1750 -58 -38 -58 -9 -155 53 -181 21 -8 483 -11 1785 -9 l1758 3 32 33 33 32
3 338 3 337 38 18 c53 24 117 92 149 157 23 48 27 67 27 145 0 75 -5 99 -25
140 -34 71 -94 131 -164 165 -70 34 -137 42 -216 26z m137 -232 c99 -64 52
-224 -66 -224 -104 0 -161 121 -94 200 14 18 36 35 47 40 28 10 86 3 113 -16z"/>
<path d="M6240 3479 c-94 -14 -184 -72 -232 -150 -17 -27 -34 -49 -37 -50 -3
0 -767 -1 -1696 -2 -1597 -2 -1692 -3 -1718 -20 -58 -38 -77 -117 -41 -172 41
-63 -88 -58 1766 -59 l1687 0 11 -26 c30 -72 86 -129 168 -171 39 -20 62 -24
137 -24 77 0 98 4 147 27 116 54 189 165 194 294 4 86 -9 132 -55 203 -71 110
-202 169 -331 150z m82 -219 c11 0 35 -15 54 -34 30 -30 34 -40 34 -84 0 -44
-5 -55 -34 -86 -32 -35 -50 -41 -106 -36 -86 6 -134 117 -82 190 22 29 81 62
100 55 8 -3 23 -5 34 -5z"/>
<path d="M3053 2650 c-61 -37 -79 -108 -43 -167 40 -66 -5 -63 885 -63 l805 0
0 -364 c0 -489 -27 -455 355 -455 l240 -1 20 -36 c48 -90 166 -156 281 -157
148 -2 266 77 321 215 75 185 -28 394 -222 453 -153 46 -315 -25 -394 -173
l-26 -47 -161 -2 -160 -1 0 363 -1 364 -24 35 c-13 19 -34 40 -47 45 -15 8
-309 11 -910 11 -862 0 -888 -1 -919 -20z m2602 -794 c45 -19 70 -59 69 -111
-2 -52 -25 -88 -69 -109 -45 -22 -76 -20 -116 7 -45 30 -61 63 -56 115 9 88
88 133 172 98z"/>
<path d="M2706 1680 c-88 -57 -74 -192 22 -220 24 -7 149 -10 365 -8 l329 3
34 37 c27 30 34 46 34 80 0 51 -33 103 -74 118 -17 6 -160 10 -355 10 -306 0
-328 -1 -355 -20z"/>
<path d="M3109 1353 c-61 -37 -84 -116 -50 -170 42 -67 43 -67 355 -67 259 0
284 1 313 19 60 36 79 113 43 173 -35 57 -54 60 -361 60 -224 -1 -281 -3 -300
-15z"/>
<path d="M2825 1029 c-22 -3 -50 -11 -62 -17 -53 -29 -70 -127 -31 -177 41
-52 65 -56 354 -55 145 1 277 6 292 11 62 21 96 121 61 178 -35 58 -54 61
-327 64 -136 1 -265 0 -287 -4z"/>
</g>
</svg>
